<?xml version="1.0" standalone="no"?><!DOCTYPE svg PUBLIC "-//W3C//DTD SVG 1.1//EN" "http://www.w3.org/Graphics/SVG/1.1/DTD/svg11.dtd"><svg t="1720859574307" class="icon" viewBox="0 0 1024 1024" version="1.1" xmlns="http://www.w3.org/2000/svg" p-id="22566" width="16" height="16" xmlns:xlink="http://www.w3.org/1999/xlink"><path d="M186.758633 563.798368l328.244498-328.244498a77.358853 77.358853 0 1 0-109.399779-109.39978L22.670254 509.087189a77.358853 77.358853 0 0 0 0 109.399779l382.910518 382.842778a77.313693 77.313693 0 0 0 109.399779 0 77.404013 77.404013 0 0 0 0-109.399779L186.758633 563.798368z" fill="#1E3545" p-id="22567"></path><path d="M673.130408 563.798368l328.221918-328.244498a77.358853 77.358853 0 1 0-109.399779-109.39978L509.019449 509.087189a77.358853 77.358853 0 0 0 0 109.399779l382.910518 382.842778a77.358853 77.358853 0 1 0 109.399779-109.399779L673.130408 563.798368z" fill="#1E3545" p-id="22568"></path></svg>