<?xml version="1.0" standalone="no"?><!DOCTYPE svg PUBLIC "-//W3C//DTD SVG 1.1//EN" "http://www.w3.org/Graphics/SVG/1.1/DTD/svg11.dtd"><svg t="1721633719601" class="icon" viewBox="0 0 1024 1024" version="1.1" xmlns="http://www.w3.org/2000/svg" p-id="41865" width="17" height="17" xmlns:xlink="http://www.w3.org/1999/xlink"><path d="M450 546.4c-100.7 0-182.5-81.9-182.5-182.5S349.3 181.4 450 181.4s182.5 81.9 182.5 182.5S550.6 546.4 450 546.4z m0-311c-70.9 0-128.5 57.7-128.5 128.5S379.1 492.4 450 492.4s128.5-57.7 128.5-128.5S520.9 235.4 450 235.4z" fill="" p-id="41866"></path><path d="M187.2 751.7c-2.2 0-4.5-0.3-6.8-0.9-14.4-3.7-23.1-18.5-19.4-32.9 34.5-133.1 154.8-226.1 292.5-226.1 137.5 0 257.8 92.9 292.4 225.8 3.8 14.4-4.9 29.2-19.3 32.9-14.4 3.8-29.2-4.9-32.9-19.3C665.3 622 566.5 545.8 453.5 545.8c-113.1 0-211.9 76.3-240.2 185.6-3.1 12.2-14.1 20.3-26.1 20.3zM645.6 519.7c-4.5 0-9-0.2-13.3-0.5-14.9-1.2-25.9-14.3-24.7-29.2 1.2-14.9 14.3-25.9 29.2-24.7 6.2 0.5 13 0.5 19.2-0.1 56.7-5.4 99.4-52.4 99.4-109.3 0-60.5-49.3-109.8-109.8-109.8-14.9 0-27-12.1-27-27s12.1-27 27-27c90.3 0 163.8 73.5 163.8 163.8 0 41-15.2 80.3-42.9 110.5-27.5 30-64.9 48.7-105.3 52.5-5 0.6-10.3 0.8-15.6 0.8z" fill="" p-id="41867"></path><path d="M888 690.7c-12 0-22.9-8.1-26.1-20.2-21.8-83.7-97.4-144.4-183.9-147.6h-0.2c-5.8-0.2-11.7-0.2-17.5 0.1h-1.4c-14.9 0-27-12.1-27-27 0-14.5 11.5-26.4 25.8-27 7.2-0.4 14.6-0.4 21.8-0.2h0.2c55 2 106.6 21.3 149.3 56 41.5 33.7 71.7 80.5 85.1 132 3.8 14.4-4.9 29.2-19.3 32.9-2.3 0.7-4.6 1-6.8 1z" fill="" p-id="41868"></path></svg>