<?xml version="1.0" standalone="no"?><!DOCTYPE svg PUBLIC "-//W3C//DTD SVG 1.1//EN" "http://www.w3.org/Graphics/SVG/1.1/DTD/svg11.dtd"><svg t="1720681972450" class="icon" viewBox="0 0 1024 1024" version="1.1" xmlns="http://www.w3.org/2000/svg" p-id="19013" xmlns:xlink="http://www.w3.org/1999/xlink" width="32" height="32"><path d="M1024.769684 559.111055a464.696524 464.696524 0 0 1-464.760664 464.888945H465.466207A464.696524 464.696524 0 0 1 0.577263 559.111055V464.953085A464.888945 464.888945 0 0 1 465.466207 0h94.542813a464.824804 464.824804 0 0 1 464.760664 464.888945v94.22211z" fill="#FE6668" p-id="19014"></path><path d="M512.673473 825.229189a62.60094 62.60094 0 0 1-45.860319-18.79311 60.997432 60.997432 0 0 1-18.85725-44.449233h127.895772a60.805011 60.805011 0 0 1-18.087567 45.090636 61.253993 61.253993 0 0 1-45.090636 18.151707z m192.805763-352.322706v159.645224l64.84585 64.78171v31.557031H255.278422v-31.557031L320.124272 632.423426V472.906483c0-50.22186 12.699781-93.901409 38.355903-131.038647 25.591982-37.137238 60.933292-61.253993 106.088068-72.221986v-22.641528a47.463827 47.463827 0 0 1 13.597745-33.866082 45.154776 45.154776 0 0 1 34.571626-14.303289c14.175008 0 25.591982 4.810523 34.699906 14.303289a47.014845 47.014845 0 0 1 13.533604 33.866082v22.641528c45.090636 11.032133 80.624366 35.148888 106.152208 72.221986 25.527842 37.137238 38.420044 80.816787 38.355904 131.038647z m63.242342-16.61234c-4.938804-86.332853-42.717444-155.027122-113.01522-206.275227l45.154776-45.090635c83.382399 64.140307 127.51093 148.035828 132.449734 251.365862h-64.58929zM371.179956 249.954776c-71.195741 50.22186-109.359223 119.04441-114.362167 206.339367H191.971939c5.002944-103.394175 49.195615-187.225556 132.578014-251.430003l46.630003 45.090636z" fill="#FFFFFF" p-id="19015"></path></svg>