<?xml version="1.0" standalone="no"?><!DOCTYPE svg PUBLIC "-//W3C//DTD SVG 1.1//EN" "http://www.w3.org/Graphics/SVG/1.1/DTD/svg11.dtd"><svg t="1721698548898" class="icon" viewBox="0 0 1024 1024" version="1.1" xmlns="http://www.w3.org/2000/svg" p-id="51818" xmlns:xlink="http://www.w3.org/1999/xlink" width="17" height="17"><path d="M989.696 341.504v409.6c0 75.264-61.44 136.704-136.704 136.704H341.504c-75.264 0-136.704-61.44-136.704-136.704V204.8h-34.304S102.4 204.8 102.4 272.896v614.4s0 68.096 68.096 68.096h512s68.096 0 68.096-68.096H819.2c0 75.264-61.44 136.704-136.704 136.704h-512c-75.264 0-136.704-61.44-136.704-136.704v-614.4c0-75.264 61.44-136.704 136.704-136.704H204.8C204.8 61.44 266.24 0 341.504 0H751.616l239.104 272.896H921.6l-170.496-204.8V204.8s0 68.096 68.096 68.096h170.496v68.608z m-68.096 0h-102.4c-75.264 0-136.704-61.44-136.704-136.704V68.096H341.504s-68.096 0-68.096 68.096v614.4s0 68.096 68.096 68.096h512s68.096 0 68.096-68.096V341.504zM409.6 580.096h375.296v68.096H409.6v-68.096zM409.6 409.6h375.296v68.096H409.6V409.6z" p-id="51819" fill="#ffffff"></path></svg>