<?xml version="1.0" standalone="no"?><!DOCTYPE svg PUBLIC "-//W3C//DTD SVG 1.1//EN" "http://www.w3.org/Graphics/SVG/1.1/DTD/svg11.dtd"><svg t="1721698945197" class="icon" viewBox="0 0 1024 1024" version="1.1" xmlns="http://www.w3.org/2000/svg" p-id="60865" xmlns:xlink="http://www.w3.org/1999/xlink" width="17" height="17"><path d="M491.84064 960h-87.68a63.36 63.36 0 0 1-59.008-39.872 766.464 766.464 0 0 1-22.336-62.144 490.24 490.24 0 0 1-30.272-12.8c-25.472 13.568-46.208 22.4-59.776 27.904a63.68 63.68 0 0 1-70.144-13.504l-62.208-62.208a63.68 63.68 0 0 1-13.504-70.144c5.568-13.568 15.104-34.304 27.904-59.776-4.8-9.6-8.768-19.968-12.8-30.272-27.072-8.768-48.64-16.768-62.144-22.4A64.192 64.192 0 0 1 0.00064 555.968V468.096a63.36 63.36 0 0 1 39.872-59.008c13.568-5.568 34.24-13.568 62.144-22.336a490.24 490.24 0 0 1 12.8-30.272 652.48 652.48 0 0 1-27.904-59.776 63.68 63.68 0 0 1 13.504-70.144l62.208-62.208a63.68 63.68 0 0 1 70.144-13.504c13.568 5.568 34.304 15.104 59.776 27.904 9.6-4.8 19.968-8.768 30.272-12.8 8.768-27.072 16.768-48.64 22.4-62.144 9.536-23.936 33.408-39.872 58.88-39.872h87.744a63.36 63.36 0 0 1 59.008 39.872c5.568 13.568 13.568 34.24 22.336 62.144 10.304 4.032 19.84 8 30.272 12.8 25.472-13.568 46.208-22.4 59.776-27.904a63.68 63.68 0 0 1 70.144 13.504l62.208 62.208a63.68 63.68 0 0 1 13.504 70.144c-5.568 13.568-15.104 34.304-27.904 59.776 4.8 9.6 8.768 19.968 12.8 30.272 27.072 8.768 48.64 16.768 62.144 22.4 23.936 9.536 39.872 33.408 39.872 58.88v87.744a63.36 63.36 0 0 1-39.872 59.008c-13.568 5.568-34.24 13.568-62.144 22.336a490.24 490.24 0 0 1-12.8 30.272c13.568 25.472 22.4 46.208 27.904 59.776a63.68 63.68 0 0 1-13.504 70.144l-62.208 62.208a63.68 63.68 0 0 1-70.144 13.504 979.648 979.648 0 0 1-59.776-27.904c-9.6 4.8-19.968 8.768-30.272 12.8-8.768 27.072-16.768 48.64-22.4 62.144a63.36 63.36 0 0 1-58.88 39.872z m-199.296-181.76c4.8 0 10.368 1.6 15.168 3.968 15.936 8.768 33.472 16 51.008 20.736 10.368 3.2 18.304 11.2 20.736 21.568 9.6 32.64 19.136 57.344 24.704 71.68h87.68c6.4-15.104 15.168-39.04 24.704-71.68a32.896 32.896 0 0 1 20.736-21.568c17.536-5.568 34.304-12.736 51.008-20.736a33.792 33.792 0 0 1 30.272 0c30.336 16 54.208 27.136 68.608 33.536l62.144-62.208c-6.4-14.336-16.704-38.272-33.472-68.544a33.792 33.792 0 0 1 0-30.272c8.768-16 16-33.536 20.736-51.072a29.76 29.76 0 0 1 21.504-20.672c32.64-9.6 57.408-19.2 71.744-24.768v-87.68c-15.104-6.4-39.04-15.104-71.68-24.704a32.896 32.896 0 0 1-21.568-20.736 402.304 402.304 0 0 0-20.736-51.008 33.792 33.792 0 0 1 0-30.272c16-30.272 27.136-54.208 33.472-68.544l-62.144-62.976c-14.4 6.4-38.272 16.704-68.608 33.472a33.792 33.792 0 0 1-30.272 0 236.288 236.288 0 0 0-51.008-20.736 36.032 36.032 0 0 1-20.736-22.336c-9.6-32.64-19.136-57.408-24.704-71.68h-87.68c-6.4 14.272-15.168 39.04-24.704 71.68a32.32 32.32 0 0 1-21.504 21.568c-17.536 5.568-34.304 12.736-51.072 20.672a33.792 33.792 0 0 1-30.272 0c-30.272-15.936-54.208-27.072-68.544-33.472l-61.44 62.976c6.4 14.336 16.768 38.272 33.536 68.544a33.792 33.792 0 0 1 0 30.336c-8.768 15.936-16 33.472-20.736 51.008a36.032 36.032 0 0 1-22.336 20.736c-32.64 9.6-57.344 19.136-71.68 24.704v87.68c14.336 6.4 39.04 15.168 70.912 24.704 11.136 3.2 19.136 11.136 22.336 22.336 5.568 16.704 11.904 33.472 20.672 49.408a30.976 30.976 0 0 1 0 31.104c-15.936 29.44-26.24 53.376-32.64 67.776l62.144 62.144c14.4-6.4 38.272-16.704 68.608-33.472a42.496 42.496 0 0 1 15.104-3.2zM448.00064 704.896a191.872 191.872 0 0 1-191.36-191.36A191.872 191.872 0 0 1 448.00064 322.368a191.872 191.872 0 0 1 191.36 191.296A191.872 191.872 0 0 1 448.00064 704.96z m0-318.848a127.936 127.936 0 0 0-127.552 127.552c0 70.144 57.408 127.552 127.552 127.552a127.936 127.936 0 0 0 127.552-127.552A127.936 127.936 0 0 0 448.00064 386.048z" fill="#ffffff" p-id="60866"></path></svg>