<?xml version="1.0" standalone="no"?><!DOCTYPE svg PUBLIC "-//W3C//DTD SVG 1.1//EN" "http://www.w3.org/Graphics/SVG/1.1/DTD/svg11.dtd"><svg t="1720863103543" class="icon" viewBox="0 0 1024 1024" version="1.1" xmlns="http://www.w3.org/2000/svg" p-id="39992" xmlns:xlink="http://www.w3.org/1999/xlink" width="16" height="16"><path d="M912.924205 232.549404H464.564641l-88.72781-89.192392H105.863073c-24.76708 0-44.841278 19.951401-44.841278 44.572148v646.62207c0.024559 11.858072 4.767584 23.227004 13.178137 31.589463s19.804045 13.031804 31.662118 13.007245h807.061132c11.858072 0.024559 23.251563-4.64581 31.662117-13.007245s13.153578-19.73139 13.178137-31.589463V277.121552c0.001023-24.620747-20.072151-44.572148-44.839231-44.572148zM739.221048 560.804543c0 13.145391-10.656711 23.802102-23.802102 23.802102H533.194718v182.224228c0 13.145391-10.656711 23.802102-23.802102 23.802102-13.145391 0-23.802102-10.656711-23.802102-23.802102V584.605621H303.367309c-13.145391 0-23.802102-10.656711-23.802102-23.802102 0-13.145391 10.656711-23.802102 23.802102-23.802102h182.224228V354.778212c0-13.145391 10.656711-23.802102 23.802102-23.802102 13.145391 0 23.802102 10.656711 23.802102 23.802102v182.224228h182.224228c13.144368 0 23.801079 10.655687 23.801079 23.802103z" fill="" p-id="39993"></path></svg>