<?xml version="1.0" standalone="no"?><!DOCTYPE svg PUBLIC "-//W3C//DTD SVG 1.1//EN" "http://www.w3.org/Graphics/SVG/1.1/DTD/svg11.dtd"><svg t="1720862807997" class="icon" viewBox="0 0 1024 1024" version="1.1" xmlns="http://www.w3.org/2000/svg" p-id="34371" xmlns:xlink="http://www.w3.org/1999/xlink" width="16" height="16"><path d="M178.51392 220.6976C437.10976 50.78016 790.42048 87.1424 1007.67744 361.47712c-225.51552-211.77856-528.65536-199.66464-723.9168-32.2304C314.69056 361.15456 345.6 393.06752 376.56064 424.96c-110.05952 23.77728-237.63456 69.07904-369.73056 177.76128C1.60256 404.89472 21.51936 275.29216 85.7088 125.03552c30.93504 31.88736 61.81888 63.80544 92.80512 95.66208z m666.98752 565.53472c-258.62656 169.90208-611.93728 133.56544-829.18912-140.7488 225.46432 211.7632 528.70144 199.63392 723.9168 32.16384l-92.81024-95.6672c110.03392-23.82336 237.63456-69.10464 369.7408-177.792 5.20192 197.85216-14.6944 327.45984-78.90432 477.73184l-92.75392-95.68768z" fill="#EA340A" p-id="34372"></path></svg>