<?xml version="1.0" standalone="no"?><!DOCTYPE svg PUBLIC "-//W3C//DTD SVG 1.1//EN" "http://www.w3.org/Graphics/SVG/1.1/DTD/svg11.dtd"><svg t="1720863034224" class="icon" viewBox="0 0 1024 1024" version="1.1" xmlns="http://www.w3.org/2000/svg" p-id="35368" xmlns:xlink="http://www.w3.org/1999/xlink" width="16" height="16"><path d="M511.5 548.3c-10.3 0-18.6-8.3-18.6-18.6V82.6c0-10.3 8.3-18.6 18.6-18.6s18.6 8.3 18.6 18.6v447.1c0 10.3-8.3 18.6-18.6 18.6z" fill="#FF7878" p-id="35369"></path><path d="M511.5 959c-247 0-447.9-200.1-447.9-446 0-149.8 74.9-288.7 200.3-371.7 8.6-5.7 20.1-3.3 25.8 5.3 5.7 8.6 3.3 20.1-5.3 25.8-115 76.1-183.6 203.4-183.6 340.7 0 225.4 184.2 408.8 410.6 408.8S922.1 738.4 922.1 513c0-136.1-67.8-262.9-181.3-339.1-8.5-5.7-10.8-17.3-5.1-25.9 5.7-8.5 17.3-10.8 25.9-5.1 123.8 83.2 197.8 221.5 197.8 370-0.1 246-201 446.1-447.9 446.1z" fill="#FF7878" p-id="35370"></path></svg>