<?xml version="1.0" standalone="no"?><!DOCTYPE svg PUBLIC "-//W3C//DTD SVG 1.1//EN" "http://www.w3.org/Graphics/SVG/1.1/DTD/svg11.dtd"><svg t="1720862743314" class="icon" viewBox="0 0 1278 1024" version="1.1" xmlns="http://www.w3.org/2000/svg" p-id="26963" xmlns:xlink="http://www.w3.org/1999/xlink" width="19.96875" height="16"><path d="M46.296681 594.83h254.843425a42.537204 42.537204 0 1 0 0-85.074407H46.296681a42.537204 42.537204 0 1 0 0 85.074407z m1219.146638 357.008673l-144.322655-144.702452a333.841089 333.841089 0 0 0 72.161327-208.12846 341.816814 341.816814 0 1 0-131.409575 267.756504l144.322655 144.322655a41.777611 41.777611 0 0 0 59.248248-59.248247z m-227.877876-178.504337c-4.177761 0-4.177761 4.177761 0 0a255.223221 255.223221 0 1 1 72.541123-178.504336 269.655487 269.655487 0 0 1-74.060309 178.504336zM46.296681 85.14315h764.530275a40.258425 40.258425 0 0 0 42.537203-42.537203A40.258425 40.258425 0 0 0 810.826956 0.068743H46.296681A40.258425 40.258425 0 0 0 3.759478 42.605947a40.258425 40.258425 0 0 0 42.537203 42.537203z m341.816815 169.769018h-341.816815A40.258425 40.258425 0 0 0 3.759478 297.449372 40.258425 40.258425 0 0 0 46.296681 341.885557h341.816815a40.258425 40.258425 0 0 0 42.537203-42.537203 42.537204 42.537204 0 0 0-44.436186-44.436186z m0 510.066646h-341.816815a42.537204 42.537204 0 1 0 0 84.694611h341.816815a40.258425 40.258425 0 0 0 42.537203-42.537204 42.157407 42.157407 0 0 0-44.436186-42.157407z" p-id="26964"></path></svg>