<?xml version="1.0" standalone="no"?><!DOCTYPE svg PUBLIC "-//W3C//DTD SVG 1.1//EN" "http://www.w3.org/Graphics/SVG/1.1/DTD/svg11.dtd"><svg t="1720862730604" class="icon" viewBox="0 0 1137 1024" version="1.1" xmlns="http://www.w3.org/2000/svg" p-id="25947" xmlns:xlink="http://www.w3.org/1999/xlink" width="17.765625" height="16"><path d="M1051.875556 598.471111L1080.888889 568.888889l-56.888889-56.888889-31.288889 31.288889a242.915556 242.915556 0 0 0-100.693333-41.528889V455.111111h-79.075556v44.373333a242.915556 242.915556 0 0 0-100.693333 41.528889L682.666667 512l-56.888889 56.888889 31.288889 31.288889a242.915556 242.915556 0 0 0-41.528889 100.693333H568.888889v80.782222h44.373333a242.915556 242.915556 0 0 0 41.528889 100.693334L625.777778 910.222222l56.888889 56.888889 31.288889-31.288889a242.915556 242.915556 0 0 0 100.693333 41.528889V1024h80.782222v-44.373333a242.915556 242.915556 0 0 0 100.693333-41.528889L1024 967.111111l56.888889-56.888889-31.288889-31.288889a242.915556 242.915556 0 0 0 41.528889-100.693333H1137.777778v-79.075556h-44.373334a242.915556 242.915556 0 0 0-41.528888-100.693333zM853.333333 885.76A146.204444 146.204444 0 1 1 999.537778 739.555556 146.204444 146.204444 0 0 1 853.333333 885.76z" p-id="25948"></path><path d="M1024 0h-398.222222L512 113.777778H113.777778a113.777778 113.777778 0 0 0-113.777778 113.777778v682.666666a113.777778 113.777778 0 0 0 113.777778 113.777778h541.013333l-14.222222-14.222222-56.888889-56.888889-40.391111-42.666667 39.822222-40.391111a265.102222 265.102222 0 0 1-14.791111-34.702222H512v-192.853333h56.888889a265.102222 265.102222 0 0 1 14.791111-34.702223L543.288889 568.888889l39.822222-40.391111 56.888889-56.888889 40.391111-39.822222 40.391111 39.822222a369.777778 369.777778 0 0 1 35.271111-16.497778V398.222222h194.56v56.888889a265.102222 265.102222 0 0 1 34.702223 14.791111l40.391111-39.822222 40.391111 39.822222 56.888889 56.888889 14.222222 14.222222V113.777778A113.777778 113.777778 0 0 0 1024 0z" p-id="25949"></path></svg>