<?xml version="1.0" standalone="no"?><!DOCTYPE svg PUBLIC "-//W3C//DTD SVG 1.1//EN" "http://www.w3.org/Graphics/SVG/1.1/DTD/svg11.dtd"><svg t="1721634110005" class="icon" viewBox="0 0 1024 1024" version="1.1" xmlns="http://www.w3.org/2000/svg" p-id="44789" xmlns:xlink="http://www.w3.org/1999/xlink" width="17" height="17"><path d="M880.622388 0.02048H143.357133c-79.051219 0-143.357133 64.326393-143.357133 143.357132v737.265255c0 79.030739 64.305914 143.357133 143.357133 143.357133h737.265255c79.030739 0 143.357133-64.326393 143.357132-143.357133v-737.265255c0-79.030739-64.326393-143.357133-143.357132-143.357132z m61.438771 880.622387c0 33.873243-27.565529 61.438771-61.438771 61.438771H143.357133c-33.873243 0-61.438771-27.565529-61.438771-61.438771v-737.265255c0-33.873243 27.565529-61.438771 61.438771-61.438771h737.265255c33.873243 0 61.438771 27.565529 61.438771 61.438771v737.265255z" fill="" p-id="44790"></path><path d="M716.785664 471.051059h-163.836723v-163.836723a40.959181 40.959181 0 0 0-81.918362 0v163.836723h-163.836723a40.959181 40.959181 0 0 0 0 81.918362h163.836723v163.836723a40.959181 40.959181 0 0 0 81.918362 0v-163.836723h163.836723a40.959181 40.959181 0 0 0 0-81.918362z" fill="" p-id="44791"></path></svg>