<?xml version="1.0" standalone="no"?><!DOCTYPE svg PUBLIC "-//W3C//DTD SVG 1.1//EN" "http://www.w3.org/Graphics/SVG/1.1/DTD/svg11.dtd"><svg t="1721633795630" class="icon" viewBox="0 0 1024 1024" version="1.1" xmlns="http://www.w3.org/2000/svg" p-id="43779" xmlns:xlink="http://www.w3.org/1999/xlink" width="17" height="17"><path d="M763.634592 524.472594H696.906212a9.978076 9.978076 0 0 1-6.236297-17.461632 293.729598 293.729598 0 0 0 94.791717-218.270402A280.009744 280.009744 0 0 0 509.817296 0a280.009744 280.009744 0 0 0-268.784409 288.74056 293.729598 293.729598 0 0 0 94.791717 218.270402 9.978076 9.978076 0 0 1-6.236297 17.461632H260.365408a249.451888 249.451888 0 0 0-249.451888 249.451888 249.451888 249.451888 0 0 0 249.451888 249.451888h503.269184a249.451888 249.451888 0 0 0 249.451888-249.451888 249.451888 249.451888 0 0 0-249.451888-249.451888zM509.817296 105.393423a177.73447 177.73447 0 0 1 174.616322 183.347137A178.3581 178.3581 0 0 1 509.817296 472.087698a178.3581 178.3581 0 0 1-170.250914-183.347138A177.73447 177.73447 0 0 1 509.817296 105.393423z m365.447016 685.992691A115.371498 115.371498 0 0 1 759.269184 899.897686H260.365408a115.371498 115.371498 0 0 1-124.725944-107.887942v-38.041413a115.371498 115.371498 0 0 1 124.725944-107.887941h498.903776a115.371498 115.371498 0 0 1 120.984166 107.887941z" p-id="43780"></path></svg>