<?xml version="1.0" standalone="no"?><!DOCTYPE svg PUBLIC "-//W3C//DTD SVG 1.1//EN" "http://www.w3.org/Graphics/SVG/1.1/DTD/svg11.dtd"><svg t="1721634407188" class="icon" viewBox="0 0 1024 1024" version="1.1" xmlns="http://www.w3.org/2000/svg" p-id="49732" xmlns:xlink="http://www.w3.org/1999/xlink" width="17" height="17"><path d="M8.815579 483.543943c-0.665592 1.369584-1.836779 2.559971-2.335973 3.846356-12.044661 24.767715-6.96952 54.668171 12.531055 73.835951l460.481105 445.24288a61.631291 61.631291 0 0 0 88.510982-2.483172c23.762927-25.676505 22.681339-66.194439-2.431972-90.494959l-413.345647-399.611405L563.900395 108.469857c24.063723-25.324509 23.48773-65.791243-1.279985-90.392561a61.503293 61.503293 0 0 0-85.298219-1.72798L21.020238 465.854547c-0.755191 0.85759-1.087987 2.220774-2.092776 3.071964-0.582393 0.691192-1.254386 1.113587-2.086376 1.79838-3.763157 3.846356-5.516737 8.550302-7.935908 12.819052h-0.089599z" fill="#333333" p-id="49733"></path><path d="M447.671332 483.543943c-0.671992 1.369584-1.843179 2.559971-2.342373 3.846356-12.038262 24.767715-6.96312 54.668171 12.537456 73.835951l460.474704 445.24288a61.631291 61.631291 0 0 0 88.510982-2.483172c23.769327-25.676505 22.681339-66.194439-2.431972-90.494959l-413.339246-399.611405 411.675265-405.409737c24.057323-25.324509 23.48773-65.791243-1.279985-90.392561a61.503293 61.503293 0 0 0-85.304619-1.72798L459.869592 465.854547c-0.748791 0.85759-1.087987 2.220774-2.086376 3.071964-0.588793 0.691192-1.254386 1.113587-2.092776 1.79838-3.756757 3.846356-5.516737 8.550302-7.935909 12.819052h-0.083199z" fill="#333333" p-id="49734"></path></svg>