<?xml version="1.0" standalone="no"?><!DOCTYPE svg PUBLIC "-//W3C//DTD SVG 1.1//EN" "http://www.w3.org/Graphics/SVG/1.1/DTD/svg11.dtd"><svg t="1721697610207" class="icon" viewBox="0 0 1024 1024" version="1.1" xmlns="http://www.w3.org/2000/svg" p-id="51660" xmlns:xlink="http://www.w3.org/1999/xlink" width="17" height="17"><path d="M587.4 213.3h323.3c27.2 0 49.3-19.6 49.3-43.8 0-24.2-22.1-43.8-49.3-43.8H587.4c-27.2 0-49.3 19.6-49.3 43.8 0 24.2 22.1 43.8 49.3 43.8zM380.2 547.1H151.8c-59 0-87.8 25.9-87.8 85.1v230.2c0 59.2 29.5 88.8 88.5 88.8h231c59 0 84.6-28.6 84.6-87.8V635c0-59.2-28.9-87.9-87.9-87.9z m3.3-474.3h-231c-59 0-88.5 29.6-88.5 88.8v230.2c0 59.2 28.9 85.1 87.8 85.1h228.4c59 0 87.8-28.6 87.8-87.8V160.6c0.1-59.2-25.5-87.8-84.5-87.8z m527.2 263.7H587.4c-27.2 0-49.3 19.6-49.3 43.8 0 24.2 22.1 43.8 49.3 43.8h323.3c27.2 0 49.3-19.6 49.3-43.8 0-24.2-22.1-43.8-49.3-43.8z m0 263.5H587.4c-27.2 0-49.3 19.6-49.3 43.8 0 24.2 22.1 43.8 49.3 43.8h323.3c27.2 0 49.3-19.6 49.3-43.8 0-24.2-22.1-43.8-49.3-43.8z m0 210.8H587.4c-27.2 0-49.3 19.6-49.3 43.8 0 24.2 22.1 43.8 49.3 43.8h323.3c27.2 0 49.3-19.6 49.3-43.8 0-24.2-22.1-43.8-49.3-43.8z" fill="#0F0F0F" p-id="51661"></path></svg>