<?xml version="1.0" standalone="no"?><!DOCTYPE svg PUBLIC "-//W3C//DTD SVG 1.1//EN" "http://www.w3.org/Graphics/SVG/1.1/DTD/svg11.dtd"><svg t="1721634231903" class="icon" viewBox="0 0 1024 1024" version="1.1" xmlns="http://www.w3.org/2000/svg" p-id="46663" xmlns:xlink="http://www.w3.org/1999/xlink" width="17" height="17"><path d="M430.656 71.68a430.528 430.528 0 0 1 162.688 0c16.128 3.136 28.16 16 32 32.32 8.512 36.8 31.296 70.144 65.92 90.56 34.56 20.416 74.24 23.936 109.632 13.12a40.384 40.384 0 0 1 43.264 12.16 449.6 449.6 0 0 1 81.472 143.872c5.12 15.04 1.92 32.256-9.6 42.944-27.968 26.112-45.504 63.616-45.504 105.344 0 41.728 17.536 79.232 45.44 105.344 11.52 10.688 14.848 27.904 9.664 42.88a449.408 449.408 0 0 1-81.472 144 40.384 40.384 0 0 1-43.264 12.096 136.448 136.448 0 0 0-109.632 13.12c-34.624 20.48-57.408 53.76-65.92 90.624a41.408 41.408 0 0 1-32 32.192 430.528 430.528 0 0 1-162.688 0 41.408 41.408 0 0 1-32-32.192A141.952 141.952 0 0 0 332.8 829.44a136.448 136.448 0 0 0-109.696-13.12 40.32 40.32 0 0 1-43.2-12.16 449.408 449.408 0 0 1-81.472-143.872 40.768 40.768 0 0 1 9.6-42.944c27.968-26.112 45.44-63.616 45.44-105.344 0-41.728-17.472-79.232-45.44-105.344a40.768 40.768 0 0 1-9.6-42.88 449.6 449.6 0 0 1 81.472-144 40.32 40.32 0 0 1 43.2-12.096c35.52 10.88 75.072 7.296 109.696-13.12 34.56-20.48 57.408-53.76 65.92-90.56a41.408 41.408 0 0 1 32-32.256zM365.248 249.728a200.32 200.32 0 0 1-145.984 23.168c-23.296 29.952-42.112 63.36-55.808 99.008 34.368 37.76 54.016 87.424 54.016 140.16 0 52.736-19.648 102.4-54.016 140.16 13.632 35.648 32.448 69.056 55.808 99.008a200.448 200.448 0 0 1 145.984 23.168 205.568 205.568 0 0 1 92.16 117.632 367.68 367.68 0 0 0 109.184 0 205.44 205.44 0 0 1 92.16-117.696 200.384 200.384 0 0 1 145.984-23.04c23.296-30.016 42.112-63.36 55.744-99.072A207.744 207.744 0 0 1 806.528 512c0-52.736 19.584-102.4 53.952-140.16a385.664 385.664 0 0 0-55.68-99.008 200.32 200.32 0 0 1-146.048-23.168 205.376 205.376 0 0 1-92.16-117.632 367.68 367.68 0 0 0-109.184 0 205.44 205.44 0 0 1-92.16 117.632zM512 704a192 192 0 1 1 0-384 192 192 0 0 1 0 384z m0-64a128 128 0 1 0-0.064-256.064A128 128 0 0 0 512 640z" fill="#000000" p-id="46664"></path></svg>