{"accessors":[{"bufferView":0,"componentType":5121,"count":228,"type":"SCALAR"},{"bufferView":1,"componentType":5126,"count":108,"type":"VEC3","max":[7.38189,20.0131226,0.0],"min":[-7.38189,-20.0131226,-25.7545929]},{"bufferView":1,"byteOffset":12,"componentType":5126,"count":108,"type":"VEC3"},{"bufferView":0,"byteOffset":228,"componentType":5121,"count":228,"type":"SCALAR"},{"bufferView":1,"byteOffset":2592,"componentType":5126,"count":108,"type":"VEC3","max":[4.10105,20.0131226,0.0],"min":[-4.10105,-20.0131226,-23.6811028]},{"bufferView":1,"byteOffset":2604,"componentType":5126,"count":108,"type":"VEC3"},{"bufferView":0,"byteOffset":456,"componentType":5121,"count":228,"type":"SCALAR"},{"bufferView":1,"byteOffset":5184,"componentType":5126,"count":109,"type":"VEC3","max":[4.10105,20.0131226,0.0],"min":[-4.10105,-20.0131226,-22.6902885]},{"bufferView":1,"byteOffset":5196,"componentType":5126,"count":109,"type":"VEC3"},{"bufferView":0,"byteOffset":684,"componentType":5121,"count":228,"type":"SCALAR"},{"bufferView":1,"byteOffset":7800,"componentType":5126,"count":108,"type":"VEC3","max":[4.51115465,20.0131226,0.0],"min":[-4.51115465,-20.0131226,-21.76509]},{"bufferView":1,"byteOffset":7812,"componentType":5126,"count":108,"type":"VEC3"},{"bufferView":0,"byteOffset":912,"componentType":5121,"count":192,"type":"SCALAR"},{"bufferView":1,"byteOffset":10392,"componentType":5126,"count":96,"type":"VEC3","max":[4.10105,20.0131226,6.617445E-24],"min":[-4.10105,-20.0131226,-25.7545929]},{"bufferView":1,"byteOffset":10404,"componentType":5126,"count":96,"type":"VEC3"},{"bufferView":0,"byteOffset":1104,"componentType":5121,"count":228,"type":"SCALAR"},{"bufferView":1,"byteOffset":12696,"componentType":5126,"count":110,"type":"VEC3","max":[4.92126,20.0131226,0.0],"min":[-4.92126,-20.0131226,-20.82677]},{"bufferView":1,"byteOffset":12708,"componentType":5126,"count":110,"type":"VEC3"},{"bufferView":0,"byteOffset":1332,"componentType":5121,"count":228,"type":"SCALAR"},{"bufferView":1,"byteOffset":15336,"componentType":5126,"count":108,"type":"VEC3","max":[4.92126,20.0131226,0.0],"min":[-4.92126,-20.0131226,-19.8982944]},{"bufferView":1,"byteOffset":15348,"componentType":5126,"count":108,"type":"VEC3"},{"bufferView":0,"byteOffset":1560,"componentType":5121,"count":228,"type":"SCALAR"},{"bufferView":1,"byteOffset":17928,"componentType":5126,"count":108,"type":"VEC3","max":[4.92126,20.0131226,0.0],"min":[-4.92126,-20.0131226,-19.0682411]},{"bufferView":1,"byteOffset":17940,"componentType":5126,"count":108,"type":"VEC3"},{"bufferView":0,"byteOffset":1788,"componentType":5121,"count":228,"type":"SCALAR"},{"bufferView":1,"byteOffset":20520,"componentType":5126,"count":108,"type":"VEC3","max":[5.33136463,20.0131226,0.0],"min":[-5.33136463,-20.0131226,-18.3366146]},{"bufferView":1,"byteOffset":20532,"componentType":5126,"count":108,"type":"VEC3"},{"bufferView":0,"byteOffset":2016,"componentType":5121,"count":228,"type":"SCALAR"},{"bufferView":1,"byteOffset":23112,"componentType":5126,"count":108,"type":"VEC3","max":[5.74147,20.0131226,0.0],"min":[-5.74147,-20.0131226,-17.650919]},{"bufferView":1,"byteOffset":23124,"componentType":5126,"count":108,"type":"VEC3"},{"bufferView":0,"byteOffset":2244,"componentType":5121,"count":228,"type":"SCALAR"},{"bufferView":1,"byteOffset":25704,"componentType":5126,"count":108,"type":"VEC3","max":[5.74147,20.0131226,0.0],"min":[-5.74147,-20.0131226,-17.0406818]},{"bufferView":1,"byteOffset":25716,"componentType":5126,"count":108,"type":"VEC3"},{"bufferView":0,"byteOffset":2472,"componentType":5121,"count":228,"type":"SCALAR"},{"bufferView":1,"byteOffset":28296,"componentType":5126,"count":108,"type":"VEC3","max":[7.38189,20.0131226,0.0],"min":[-7.38189,-20.0131226,-25.7545929]},{"bufferView":1,"byteOffset":28308,"componentType":5126,"count":108,"type":"VEC3"},{"bufferView":0,"byteOffset":2700,"componentType":5121,"count":228,"type":"SCALAR"},{"bufferView":1,"byteOffset":30888,"componentType":5126,"count":108,"type":"VEC3","max":[4.10105,20.0131226,0.0],"min":[-4.10105,-20.0131226,-23.6811028]},{"bufferView":1,"byteOffset":30900,"componentType":5126,"count":108,"type":"VEC3"},{"bufferView":0,"byteOffset":2928,"componentType":5121,"count":228,"type":"SCALAR"},{"bufferView":1,"byteOffset":33480,"componentType":5126,"count":108,"type":"VEC3","max":[4.10105,20.0131226,0.0],"min":[-4.10105,-20.0131226,-22.6902885]},{"bufferView":1,"byteOffset":33492,"componentType":5126,"count":108,"type":"VEC3"},{"bufferView":0,"byteOffset":3156,"componentType":5121,"count":228,"type":"SCALAR"},{"bufferView":1,"byteOffset":36072,"componentType":5126,"count":108,"type":"VEC3","max":[4.51115465,20.0131226,0.0],"min":[-4.51115465,-20.0131226,-21.76509]},{"bufferView":1,"byteOffset":36084,"componentType":5126,"count":108,"type":"VEC3"},{"bufferView":0,"byteOffset":3384,"componentType":5121,"count":192,"type":"SCALAR"},{"bufferView":1,"byteOffset":38664,"componentType":5126,"count":96,"type":"VEC3","max":[4.10105,20.0131226,6.617445E-24],"min":[-4.10105,-20.0131226,-25.7545929]},{"bufferView":1,"byteOffset":38676,"componentType":5126,"count":96,"type":"VEC3"},{"bufferView":0,"byteOffset":3576,"componentType":5121,"count":228,"type":"SCALAR"},{"bufferView":1,"byteOffset":40968,"componentType":5126,"count":108,"type":"VEC3","max":[4.92126,20.0131226,0.0],"min":[-4.92126,-20.0131226,-20.82677]},{"bufferView":1,"byteOffset":40980,"componentType":5126,"count":108,"type":"VEC3"},{"bufferView":0,"byteOffset":3804,"componentType":5121,"count":228,"type":"SCALAR"},{"bufferView":1,"byteOffset":43560,"componentType":5126,"count":108,"type":"VEC3","max":[4.92126,20.0131226,0.0],"min":[-4.92126,-20.0131226,-19.8982944]},{"bufferView":1,"byteOffset":43572,"componentType":5126,"count":108,"type":"VEC3"},{"bufferView":0,"byteOffset":4032,"componentType":5121,"count":228,"type":"SCALAR"},{"bufferView":1,"byteOffset":46152,"componentType":5126,"count":108,"type":"VEC3","max":[4.92126,20.0131226,0.0],"min":[-4.92126,-20.0131226,-19.0682411]},{"bufferView":1,"byteOffset":46164,"componentType":5126,"count":108,"type":"VEC3"},{"bufferView":0,"byteOffset":4260,"componentType":5121,"count":228,"type":"SCALAR"},{"bufferView":1,"byteOffset":48744,"componentType":5126,"count":108,"type":"VEC3","max":[5.33136463,20.0131226,0.0],"min":[-5.33136463,-20.0131226,-18.3366146]},{"bufferView":1,"byteOffset":48756,"componentType":5126,"count":108,"type":"VEC3"},{"bufferView":0,"byteOffset":4488,"componentType":5121,"count":228,"type":"SCALAR"},{"bufferView":1,"byteOffset":51336,"componentType":5126,"count":108,"type":"VEC3","max":[5.74147,20.0131226,0.0],"min":[-5.74147,-20.0131226,-17.650919]},{"bufferView":1,"byteOffset":51348,"componentType":5126,"count":108,"type":"VEC3"},{"bufferView":0,"byteOffset":4716,"componentType":5121,"count":228,"type":"SCALAR"},{"bufferView":1,"byteOffset":53928,"componentType":5126,"count":108,"type":"VEC3","max":[5.74147,20.0131226,0.0],"min":[-5.74147,-20.0131226,-17.0406818]},{"bufferView":1,"byteOffset":53940,"componentType":5126,"count":108,"type":"VEC3"},{"bufferView":0,"byteOffset":4944,"componentType":5121,"count":228,"type":"SCALAR"},{"bufferView":1,"byteOffset":56520,"componentType":5126,"count":108,"type":"VEC3","max":[5.74147,20.0131226,0.0],"min":[-5.74147,-20.0131226,-16.56168]},{"bufferView":1,"byteOffset":56532,"componentType":5126,"count":108,"type":"VEC3"},{"bufferView":0,"byteOffset":5172,"componentType":5121,"count":216,"type":"SCALAR"},{"bufferView":1,"byteOffset":59112,"componentType":5126,"count":104,"type":"VEC3","max":[5.74147,20.0131226,0.0],"min":[-5.74147,-20.0131226,-16.2139111]},{"bufferView":1,"byteOffset":59124,"componentType":5126,"count":104,"type":"VEC3"},{"bufferView":0,"byteOffset":5388,"componentType":5121,"count":216,"type":"SCALAR"},{"bufferView":1,"byteOffset":61608,"componentType":5126,"count":104,"type":"VEC3","max":[13.12336,20.0131226,0.0],"min":[-13.12336,-20.0131226,-15.9973755]},{"bufferView":1,"byteOffset":61620,"componentType":5126,"count":104,"type":"VEC3"},{"bufferView":0,"byteOffset":5604,"componentType":5121,"count":228,"type":"SCALAR"},{"bufferView":1,"byteOffset":64104,"componentType":5126,"count":108,"type":"VEC3","max":[5.74147,20.0131226,0.0],"min":[-5.74147,-20.0131226,-16.56168]},{"bufferView":1,"byteOffset":64116,"componentType":5126,"count":108,"type":"VEC3"},{"bufferView":0,"byteOffset":5832,"componentType":5121,"count":216,"type":"SCALAR"},{"bufferView":1,"byteOffset":66696,"componentType":5126,"count":104,"type":"VEC3","max":[5.74147,20.0131226,0.0],"min":[-5.74147,-20.0131226,-16.2139111]},{"bufferView":1,"byteOffset":66708,"componentType":5126,"count":104,"type":"VEC3"},{"bufferView":0,"byteOffset":6048,"componentType":5121,"count":216,"type":"SCALAR"},{"bufferView":1,"byteOffset":69192,"componentType":5126,"count":104,"type":"VEC3","max":[16.4042,20.0131226,0.0],"min":[-16.4042,-20.0131226,-15.9973755]},{"bufferView":1,"byteOffset":69204,"componentType":5126,"count":104,"type":"VEC3"},{"bufferView":0,"byteOffset":6264,"componentType":5121,"count":192,"type":"SCALAR"},{"bufferView":1,"byteOffset":71688,"componentType":5126,"count":96,"type":"VEC3","max":[27.8871384,20.0131226,0.0],"min":[-27.8871384,-20.0131226,-15.9120731]},{"bufferView":1,"byteOffset":71700,"componentType":5126,"count":96,"type":"VEC3"},{"bufferView":0,"byteOffset":6456,"componentType":5121,"count":192,"type":"SCALAR"},{"bufferView":1,"byteOffset":73992,"componentType":5126,"count":96,"type":"VEC3","max":[3.28084,20.0131226,6.39488462E-14],"min":[-3.28084,-20.0131226,-15.9120731]},{"bufferView":1,"byteOffset":74004,"componentType":5126,"count":96,"type":"VEC3"},{"bufferView":0,"byteOffset":6648,"componentType":5121,"count":192,"type":"SCALAR"},{"bufferView":1,"byteOffset":76296,"componentType":5126,"count":96,"type":"VEC3","max":[3.28084,20.0131226,6.39488462E-14],"min":[-3.28084,-20.0131226,-15.9120731]},{"bufferView":1,"byteOffset":76308,"componentType":5126,"count":96,"type":"VEC3"}],"asset":{"copyright":"**Trial version, Do not use for commercial purpose!** Copyright BimAngle 2017-2024","generator":"**Trial version, Do not use for commercial purpose!** BimAngle Engine (For Revit) 2024.9.18","version":"2.0"},"buffers":[{"uri":"lxgg.bin","byteLength":85440}],"bufferViews":[{"buffer":0,"byteLength":6840,"target":34963},{"buffer":0,"byteOffset":6840,"byteLength":78600,"byteStride":24,"target":34962}],"materials":[{"pbrMetallicRoughness":{"baseColorFactor":[0.212230757,0.212230757,0.212230757,1.0],"metallicFactor":0.0,"roughnessFactor":0.75},"doubleSided":true}],"meshes":[{"primitives":[{"attributes":{"POSITION":1,"NORMAL":2},"indices":0,"material":0}]},{"primitives":[{"attributes":{"POSITION":34,"NORMAL":35},"indices":33,"material":0}]},{"primitives":[{"attributes":{"POSITION":4,"NORMAL":5},"indices":3,"material":0}]},{"primitives":[{"attributes":{"POSITION":37,"NORMAL":38},"indices":36,"material":0}]},{"primitives":[{"attributes":{"POSITION":7,"NORMAL":8},"indices":6,"material":0}]},{"primitives":[{"attributes":{"POSITION":40,"NORMAL":41},"indices":39,"material":0}]},{"primitives":[{"attributes":{"POSITION":10,"NORMAL":11},"indices":9,"material":0}]},{"primitives":[{"attributes":{"POSITION":43,"NORMAL":44},"indices":42,"material":0}]},{"primitives":[{"attributes":{"POSITION":13,"NORMAL":14},"indices":12,"material":0}]},{"primitives":[{"attributes":{"POSITION":46,"NORMAL":47},"indices":45,"material":0}]},{"primitives":[{"attributes":{"POSITION":16,"NORMAL":17},"indices":15,"material":0}]},{"primitives":[{"attributes":{"POSITION":49,"NORMAL":50},"indices":48,"material":0}]},{"primitives":[{"attributes":{"POSITION":19,"NORMAL":20},"indices":18,"material":0}]},{"primitives":[{"attributes":{"POSITION":52,"NORMAL":53},"indices":51,"material":0}]},{"primitives":[{"attributes":{"POSITION":22,"NORMAL":23},"indices":21,"material":0}]},{"primitives":[{"attributes":{"POSITION":55,"NORMAL":56},"indices":54,"material":0}]},{"primitives":[{"attributes":{"POSITION":25,"NORMAL":26},"indices":24,"material":0}]},{"primitives":[{"attributes":{"POSITION":58,"NORMAL":59},"indices":57,"material":0}]},{"primitives":[{"attributes":{"POSITION":28,"NORMAL":29},"indices":27,"material":0}]},{"primitives":[{"attributes":{"POSITION":61,"NORMAL":62},"indices":60,"material":0}]},{"primitives":[{"attributes":{"POSITION":31,"NORMAL":32},"indices":30,"material":0}]},{"primitives":[{"attributes":{"POSITION":64,"NORMAL":65},"indices":63,"material":0}]},{"primitives":[{"attributes":{"POSITION":67,"NORMAL":68},"indices":66,"material":0}]},{"primitives":[{"attributes":{"POSITION":76,"NORMAL":77},"indices":75,"material":0}]},{"primitives":[{"attributes":{"POSITION":70,"NORMAL":71},"indices":69,"material":0}]},{"primitives":[{"attributes":{"POSITION":79,"NORMAL":80},"indices":78,"material":0}]},{"primitives":[{"attributes":{"POSITION":73,"NORMAL":74},"indices":72,"material":0}]},{"primitives":[{"attributes":{"POSITION":82,"NORMAL":83},"indices":81,"material":0}]},{"primitives":[{"attributes":{"POSITION":85,"NORMAL":86},"indices":84,"material":0}]},{"primitives":[{"attributes":{"POSITION":88,"NORMAL":89},"indices":87,"material":0}]},{"primitives":[{"attributes":{"POSITION":91,"NORMAL":92},"indices":90,"material":0}]}],"nodes":[{"matrix":[0.0,0.0,-0.3048,0.0,-0.3048,0.0,0.0,0.0,0.0,0.3048,0.0,0.0,1.90050614,6.91048672E-13,52.6597557,1.0],"mesh":0,"name":"0' [569578]","extras":{"DbId":6,"ExId":"e24d3dc4-82b6-4494-8d15-03a35df30dd7-0008b0ea"}},{"matrix":[0.0,0.0,0.3048,0.0,0.3048,0.0,0.0,0.0,0.0,0.3048,0.0,0.0,1.90050614,6.931581E-13,43.1597557,1.0],"mesh":1,"name":"0' [673995]","extras":{"DbId":51,"ExId":"e24d3dc4-82b6-4494-8d15-03a35df30dd7-000a48cb"}},{"matrix":[0.0,0.0,-0.3048,0.0,-0.3048,0.0,0.0,0.0,0.0,0.3048,0.0,0.0,1.90050614,6.902715E-13,56.1597557,1.0],"mesh":2,"name":"1' [580471]","extras":{"DbId":13,"ExId":"e24d3dc4-82b6-4494-8d15-03a35df30dd7-0008db77"}},{"matrix":[0.0,0.0,0.3048,0.0,0.3048,0.0,0.0,0.0,0.0,0.3048,0.0,0.0,1.90050614,6.93935252E-13,39.6597557,1.0],"mesh":3,"name":"1' [673997]","extras":{"DbId":53,"ExId":"e24d3dc4-82b6-4494-8d15-03a35df30dd7-000a48cd"}},{"matrix":[0.0,0.0,-0.3048,0.0,-0.3048,0.0,0.0,0.0,0.0,0.3048,0.0,0.0,1.90050614,6.897164E-13,58.6597557,1.0],"mesh":4,"name":"2' [590596]","extras":{"DbId":17,"ExId":"e24d3dc4-82b6-4494-8d15-03a35df30dd7-00090304"}},{"matrix":[0.0,0.0,0.3048,0.0,0.3048,0.0,0.0,0.0,0.0,0.3048,0.0,0.0,1.90050614,6.94490364E-13,37.1597557,1.0],"mesh":5,"name":"2' [673999]","extras":{"DbId":55,"ExId":"e24d3dc4-82b6-4494-8d15-03a35df30dd7-000a48cf"}},{"matrix":[0.0,0.0,-0.3048,0.0,-0.3048,0.0,0.0,0.0,0.0,0.3048,0.0,0.0,1.90050614,6.89133538E-13,61.2847557,1.0],"mesh":6,"name":"3' [599942]","extras":{"DbId":21,"ExId":"e24d3dc4-82b6-4494-8d15-03a35df30dd7-00092786"}},{"matrix":[0.0,0.0,0.3048,0.0,0.3048,0.0,0.0,0.0,0.0,0.3048,0.0,0.0,1.90050614,6.95073231E-13,34.5347557,1.0],"mesh":7,"name":"3' [674001]","extras":{"DbId":57,"ExId":"e24d3dc4-82b6-4494-8d15-03a35df30dd7-000a48d1"}},{"matrix":[0.0,0.0,-0.3048,0.0,-0.3048,0.0,0.0,0.0,0.0,0.3048,0.0,0.0,1.90050614,6.91825828E-13,49.1597557,1.0],"mesh":8,"name":"00' [625235]","extras":{"DbId":25,"ExId":"e24d3dc4-82b6-4494-8d15-03a35df30dd7-00098a53"}},{"matrix":[0.0,0.0,0.3048,0.0,0.3048,0.0,0.0,0.0,0.0,0.3048,0.0,0.0,1.90050614,6.9238094E-13,46.6597557,1.0],"mesh":9,"name":"00' [674003]","extras":{"DbId":59,"ExId":"e24d3dc4-82b6-4494-8d15-03a35df30dd7-000a48d3"}},{"matrix":[0.0,0.0,-0.3048,0.0,-0.3048,0.0,0.0,0.0,0.0,0.3048,0.0,0.0,1.90050614,6.88495159E-13,64.15975,1.0],"mesh":10,"name":"4' [633681]","extras":{"DbId":29,"ExId":"e24d3dc4-82b6-4494-8d15-03a35df30dd7-0009ab51"}},{"matrix":[0.0,0.0,0.3048,0.0,0.3048,0.0,0.0,0.0,0.0,0.3048,0.0,0.0,1.90050614,6.957116E-13,31.6597557,1.0],"mesh":11,"name":"4' [674005]","extras":{"DbId":61,"ExId":"e24d3dc4-82b6-4494-8d15-03a35df30dd7-000a48d5"}},{"matrix":[0.0,0.0,-0.3048,0.0,-0.3048,0.0,0.0,0.0,0.0,0.3048,0.0,0.0,1.90050614,6.87829E-13,67.15975,1.0],"mesh":12,"name":"5hao [651980]","extras":{"DbId":33,"ExId":"e24d3dc4-82b6-4494-8d15-03a35df30dd7-0009f2cc"}},{"matrix":[0.0,0.0,0.3048,0.0,0.3048,0.0,0.0,0.0,0.0,0.3048,0.0,0.0,1.90050614,6.96377743E-13,28.6597557,1.0],"mesh":13,"name":"5hao [674007]","extras":{"DbId":63,"ExId":"e24d3dc4-82b6-4494-8d15-03a35df30dd7-000a48d7"}},{"matrix":[0.0,0.0,-0.3048,0.0,-0.3048,0.0,0.0,0.0,0.0,0.3048,0.0,0.0,1.90050614,6.871629E-13,70.15975,1.0],"mesh":14,"name":"6hao [658702]","extras":{"DbId":37,"ExId":"e24d3dc4-82b6-4494-8d15-03a35df30dd7-000a0d0e"}},{"matrix":[0.0,0.0,0.3048,0.0,0.3048,0.0,0.0,0.0,0.0,0.3048,0.0,0.0,1.90050614,6.970439E-13,25.6597557,1.0],"mesh":15,"name":"6hao [674009]","extras":{"DbId":65,"ExId":"e24d3dc4-82b6-4494-8d15-03a35df30dd7-000a48d9"}},{"matrix":[0.0,0.0,-0.3048,0.0,-0.3048,0.0,0.0,0.0,0.0,0.3048,0.0,0.0,1.90050614,6.86469E-13,73.28475,1.0],"mesh":16,"name":"7hao [664557]","extras":{"DbId":41,"ExId":"e24d3dc4-82b6-4494-8d15-03a35df30dd7-000a23ed"}},{"matrix":[0.0,0.0,0.3048,0.0,0.3048,0.0,0.0,0.0,0.0,0.3048,0.0,0.0,1.90050614,6.97737766E-13,22.5347557,1.0],"mesh":17,"name":"7hao [674011]","extras":{"DbId":67,"ExId":"e24d3dc4-82b6-4494-8d15-03a35df30dd7-000a48db"}},{"matrix":[0.0,0.0,-0.3048,0.0,-0.3048,0.0,0.0,0.0,0.0,0.3048,0.0,0.0,1.90050614,6.857196E-13,76.65975,1.0],"mesh":18,"name":"8hao [669628]","extras":{"DbId":45,"ExId":"e24d3dc4-82b6-4494-8d15-03a35df30dd7-000a37bc"}},{"matrix":[0.0,0.0,0.3048,0.0,0.3048,0.0,0.0,0.0,0.0,0.3048,0.0,0.0,1.90050614,6.98487167E-13,19.1597557,1.0],"mesh":19,"name":"8hao [674013]","extras":{"DbId":69,"ExId":"e24d3dc4-82b6-4494-8d15-03a35df30dd7-000a48dd"}},{"matrix":[0.0,0.0,-0.3048,0.0,-0.3048,0.0,0.0,0.0,0.0,0.3048,0.0,0.0,1.90050614,6.84942446E-13,80.15975,1.0],"mesh":20,"name":"9hao [673803]","extras":{"DbId":49,"ExId":"e24d3dc4-82b6-4494-8d15-03a35df30dd7-000a480b"}},{"matrix":[0.0,0.0,0.3048,0.0,0.3048,0.0,0.0,0.0,0.0,0.3048,0.0,0.0,1.90050614,6.992643E-13,15.6597557,1.0],"mesh":21,"name":"9hao [674015]","extras":{"DbId":71,"ExId":"e24d3dc4-82b6-4494-8d15-03a35df30dd7-000a48df"}},{"matrix":[0.0,0.0,-0.3048,0.0,-0.3048,0.0,0.0,0.0,0.0,0.3048,0.0,0.0,1.90050614,7.000415E-13,12.1597557,1.0],"mesh":22,"name":"10 [691252]","extras":{"DbId":75,"ExId":"b44f9291-b8ec-4e44-a21c-7aa8d58e68a1-000a8c34"}},{"matrix":[0.0,0.0,0.3048,0.0,0.3048,0.0,0.0,0.0,0.0,0.3048,0.0,0.0,1.90050614,6.841653E-13,83.65975,1.0],"mesh":23,"name":"10 [729460]","extras":{"DbId":85,"ExId":"b44f9291-b8ec-4e44-a21c-7aa8d58e68a1-000b2174"}},{"matrix":[0.0,0.0,-0.3048,0.0,-0.3048,0.0,0.0,0.0,0.0,0.3048,0.0,0.0,1.90050614,7.00818635E-13,8.659756,1.0],"mesh":24,"name":"11 [708372]","extras":{"DbId":79,"ExId":"b44f9291-b8ec-4e44-a21c-7aa8d58e68a1-000acf14"}},{"matrix":[0.0,0.0,0.3048,0.0,0.3048,0.0,0.0,0.0,0.0,0.3048,0.0,0.0,1.90050614,6.83388133E-13,87.15975,1.0],"mesh":25,"name":"11 [729462]","extras":{"DbId":87,"ExId":"b44f9291-b8ec-4e44-a21c-7aa8d58e68a1-000b2176"}},{"matrix":[0.0,0.0,-0.3048,0.0,-0.3048,0.0,0.0,0.0,0.0,0.3048,0.0,0.0,1.90050614,7.020954E-13,2.90975571,1.0],"mesh":26,"name":"12+13 [716708]","extras":{"DbId":83,"ExId":"b44f9291-b8ec-4e44-a21c-7aa8d58e68a1-000aefa4"}},{"matrix":[0.0,0.0,0.3048,0.0,0.3048,0.0,0.0,0.0,0.0,0.3048,0.0,0.0,1.90050614,6.81889332E-13,93.90975,1.0],"mesh":27,"name":"12+13 [729464]","extras":{"DbId":89,"ExId":"b44f9291-b8ec-4e44-a21c-7aa8d58e68a1-000b2178"}},{"matrix":[0.0,0.0,-0.3048,0.0,-0.3048,0.0,0.0,0.0,0.0,0.3048,0.0,0.0,1.90050614,6.7889173E-13,107.409752,1.0],"mesh":28,"name":"\u7aef2 [755828]","extras":{"DbId":93,"ExId":"b44f9291-b8ec-4e44-a21c-7aa8d58e68a1-000b8874"}},{"matrix":[0.0,0.0,-0.3048,0.0,-0.3048,0.0,0.0,0.0,0.0,0.3048,0.0,0.0,1.90050614,6.767823E-13,116.909752,1.0],"mesh":29,"name":"\u7aef1 [781827]","extras":{"DbId":97,"ExId":"6d1b6e55-6a3c-41aa-b9a8-7bb2ed5b3258-000bee03"}},{"matrix":[0.0,0.0,-0.3048,0.0,-0.3048,0.0,0.0,0.0,0.0,0.3048,0.0,0.0,1.90050614,7.032056E-13,-2.09024429,1.0],"mesh":30,"name":"\u7aef1 [781900]","extras":{"DbId":99,"ExId":"6d1b6e55-6a3c-41aa-b9a8-7bb2ed5b3258-000bee4c"}}],"scene":0,"scenes":[{"nodes":[0,1,2,3,4,5,6,7,8,9,10,11,12,13,14,15,16,17,18,19,20,21,22,23,24,25,26,27,28,29,30],"name":"glTF-Model","extras":{"Version":3,"ModelTitle":"\u603b.rvt","ModelId":"a4c4d70e-fee2-4779-994b-b3240b4a1cc2","ModelBoundingBox":[-4.1994936676025389,-7.849999914550807,-3.0902445144653341,8.000505844116212,7.2291928814348988E-13,117.9097517578125],"PartFileEnabled":false,"PartFileIndex":0,"PartFileNames":null,"InfoFileName":"lxgg-data.json","ModelOffset":null}}]}